# xmcd
#
# Track frame offsets:
#	150
#	27011
#	43823
#	61074
#	80740
#	109927
#	125660
#	155900
#	180572
#	198206
#	233573
#	256044
#	275208
#	294843
#	323537
#
# Disc length: 4560 seconds
#
# Revision: 1
# Processed by: cddbd v1.5.2PL0 Copyright (c) Steve Scherf et al.
# Submitted via: EZCDAudioConverter 8.2.2.1
#
DISCID=cd11ce0f
DTITLE=GILMAR SINISTRO - THE BEST OF MIAMI - VOL.06 - 2005 [CD TBOM06) SINISTR
DTITLE=ÃO STUDIOS COMPANY
DYEAR=2005
DGENRE=FREESTYLE
TTITLE0=PRETTY TONY - FIX IN THE MIX (BY GILMAR SINISTRO)
TTITLE1=BERNADETTE - YOUR ARE THE ONE (BY GILMAR SINISTRO)
TTITLE2=M.V.P. - DO IT TO ME (BY GILMAR SINISTRO)
TTITLE3=CHARLIE - MY HEART IS ON FIRE (BY GILMAR SINISTRO)
TTITLE4=SPANISH FLY - PRECIOUS (BY GILMAR SINISTRO)
TTITLE5=COLLAGE - DIANA (BY GILMAR SINISTRO)
TTITLE6=IN-DEX - GIVE A SIGN (BY GILMAR SINISTRO)
TTITLE7=INTORNATION                    - DIED IN YOUR ARM (BY GILMAR SINISTRO)
TTITLE8=JOHNNY-O. - RUNAWAY LOVE (BY GILMAR SINISTRO)
TTITLE9=LIDIA LEE LOVE - DON'T TAKE YOU LOVE AWAY (BY GILMAR SINISTRO)
TTITLE10=LULY - REAL LOVE (BY GILMAR SINISTRO)
TTITLE11=NYASIA - I'M THE ONE (BY GILMAR SINISTRO)
TTITLE12=COLLAGE - I'LL BE LOVING YOU (BY GILMAR SINISTRO)
TTITLE13=RIOS SISTERS - ARE YOU LOOKING FOR LOVE (CLUB VERSION) (BY GILMAR SIN
TTITLE13=ISTRO)
TTITLE14=SHANA - FALLING SLOWLY ( ALBUM MIX ) (BY GILMAR SINISTRO)
EXTD=
EXTT0=
EXTT1=
EXTT2=
EXTT3=
EXTT4=
EXTT5=
EXTT6=
EXTT7=
EXTT8=
EXTT9=
EXTT10=
EXTT11=
EXTT12=
EXTT13=
EXTT14=
PLAYORDER=
